# xmcd
#
# Track frame offsets:
#	150
#	14357
#	26827
#	41376
#	55741
#	72805
#	87175
#	107712
#	123686
#	141848
#	159338
#	181657
#	200522
#	218326
#	250821
#	268753
#	291560
#
# Disc length: 4214 seconds
#
# Revision: 5
# Processed by: cddbd v1.5PL3 Copyright (c) Steve Scherf et al.
# Submitted via: MusicManager 7.0.1.0 
#
DISCID=f1107411
DTITLE=The Spinners - A One of a Kind Love Affair: The Anthology Disc 1
DYEAR=1991
DGENRE=Oldies
TTITLE0=That's What Girls Are Made For
TTITLE1=I'll Always Love You
TTITLE2=It's a Shame
TTITLE3=(Oh Lord) I Wish I Could Sleep
TTITLE4=How Could I Let You Get Away
TTITLE5=I'll Be Around
TTITLE6=Could It Be I'm Falling In Love
TTITLE7=One of a Kind (Love Affair)
TTITLE8=Don't Let the Green Grass Fool You
TTITLE9=Ghetto Child
TTITLE10=Mighty Love
TTITLE11=I'm Coming Home
TTITLE12=He'll Never Love You Like I Do
TTITLE13=Love Don't Love Nobody
TTITLE14=Then Came You
TTITLE15=Living a Little, Laughing a Little
TTITLE16=Sadie
EXTD=
EXTT0=
EXTT1=
EXTT2=
EXTT3=
EXTT4=
EXTT5=
EXTT6=
EXTT7=
EXTT8=
EXTT9=
EXTT10=
EXTT11=
EXTT12=
EXTT13=
EXTT14=
EXTT15=
EXTT16=
PLAYORDER=
